<svg width="376" height="433" viewBox="0 0 376 433" fill="none" xmlns="http://www.w3.org/2000/svg">
<circle opacity="0.2" cx="158.264" cy="207.713" r="55.0428" transform="rotate(-120 158.264 207.713)" fill="url(#paint0_linear_6743_56734)"/>
<circle cx="161.484" cy="211.007" r="95.9814" transform="rotate(120 161.484 211.007)" stroke="url(#paint1_linear_6743_56734)" stroke-width="2.11645"/>
<circle cx="44.5566" cy="44.5566" r="43.9817" transform="matrix(0.5 -0.866025 -0.866025 -0.5 41.625 332.293)" stroke="url(#paint2_linear_6743_56734)" stroke-width="1.14985"/>
<circle cx="161.484" cy="211.012" r="150.157" transform="rotate(120 161.484 211.012)" stroke="url(#paint3_linear_6743_56734)" stroke-width="1.76614"/>
<circle cx="23.5014" cy="271.49" r="7.00129" transform="rotate(-60 23.5014 271.49)" fill="url(#paint4_linear_6743_56734)" fill-opacity="0.854181"/>
<rect x="218" y="69.001" width="10" height="10" fill="url(#paint5_linear_6743_56734)" fill-opacity="0.854181"/>
<circle cx="249.17" cy="248.261" r="8.75161" transform="rotate(-60 249.17 248.261)" fill="url(#paint6_linear_6743_56734)"/>
<circle cx="118.33" cy="109.838" r="5" transform="rotate(-150 118.33 109.838)" fill="#D0E2FF"/>
<path d="M244.067 320.767L251.311 324.317L258.008 328.816L258.555 336.864L258.008 344.913L251.311 349.411L244.067 352.962L236.823 349.411L230.125 344.913L229.579 336.864L230.125 328.816L236.823 324.317L244.067 320.767Z" fill="url(#paint7_linear_6743_56734)"/>
<defs>
<linearGradient id="paint0_linear_6743_56734" x1="158.264" y1="152.67" x2="158.264" y2="262.755" gradientUnits="userSpaceOnUse">
<stop stop-color="#4589FF"/>
<stop offset="0.520834" stop-color="#2610A8"/>
<stop offset="1"/>
</linearGradient>
<linearGradient id="paint1_linear_6743_56734" x1="161.484" y1="113.967" x2="161.484" y2="308.046" gradientUnits="userSpaceOnUse">
<stop stop-color="#087AFF"/>
<stop offset="1" stop-color="#0F62FE" stop-opacity="0"/>
</linearGradient>
<linearGradient id="paint2_linear_6743_56734" x1="44.5566" y1="0" x2="44.5566" y2="89.1132" gradientUnits="userSpaceOnUse">
<stop stop-color="#087AFF"/>
<stop offset="1" stop-color="#0F62FE" stop-opacity="0"/>
</linearGradient>
<linearGradient id="paint3_linear_6743_56734" x1="161.484" y1="59.9722" x2="161.484" y2="362.052" gradientUnits="userSpaceOnUse">
<stop stop-color="#087AFF"/>
<stop offset="1" stop-color="#0F62FE" stop-opacity="0"/>
</linearGradient>
<linearGradient id="paint4_linear_6743_56734" x1="23.5014" y1="264.489" x2="23.5014" y2="278.491" gradientUnits="userSpaceOnUse">
<stop stop-color="#FFAD33"/>
<stop offset="1" stop-color="#FFAD33" stop-opacity="0.42"/>
</linearGradient>
<linearGradient id="paint5_linear_6743_56734" x1="223" y1="69.001" x2="223" y2="79.001" gradientUnits="userSpaceOnUse">
<stop stop-color="#88CCFF"/>
<stop offset="1" stop-color="#4589FF"/>
</linearGradient>
<linearGradient id="paint6_linear_6743_56734" x1="249.17" y1="239.509" x2="249.17" y2="257.012" gradientUnits="userSpaceOnUse">
<stop stop-color="#9747FF"/>
<stop offset="1" stop-color="#9747FF" stop-opacity="0.74"/>
</linearGradient>
<linearGradient id="paint7_linear_6743_56734" x1="244.067" y1="320.767" x2="244.067" y2="352.962" gradientUnits="userSpaceOnUse">
<stop stop-color="#5ED796"/>
<stop offset="1" stop-color="#5ED796" stop-opacity="0"/>
</linearGradient>
</defs>
</svg>
